<svg xmlns="http://www.w3.org/2000/svg" width="13" height="13" viewBox="0 0 13 13" fill="none">
    <g clip-path="url(#clip0_759_564)">
        <path d="M4.08967 11.7816C8.99412 11.7816 11.6774 7.71736 11.6774 4.1939C11.6774 4.07965 11.6749 3.96285 11.6698 3.84859C12.1918 3.47111 12.6422 3.00353 13 2.46785C12.5139 2.68414 11.9977 2.8254 11.4692 2.8868C12.0257 2.55322 12.4424 2.02919 12.642 1.41185C12.1185 1.72212 11.5459 1.94098 10.9489 2.05906C10.5467 1.63166 10.0149 1.34867 9.43566 1.25384C8.85646 1.15901 8.26215 1.25763 7.74461 1.53445C7.22707 1.81127 6.81514 2.25086 6.5725 2.78527C6.32986 3.31969 6.27002 3.91915 6.40225 4.49098C5.34218 4.43778 4.30513 4.1624 3.35832 3.6827C2.41151 3.203 1.57608 2.52968 0.906191 1.70639C0.565716 2.2934 0.461531 2.98804 0.614808 3.64911C0.768086 4.31019 1.16733 4.8881 1.73139 5.26539C1.30792 5.25195 0.893737 5.13793 0.523047 4.93277V4.96578C0.522668 5.58181 0.735636 6.17896 1.12575 6.65573C1.51587 7.1325 2.05905 7.45945 2.66297 7.58101C2.2707 7.68834 1.85899 7.70398 1.45971 7.62672C1.63012 8.15651 1.96169 8.61988 2.40813 8.95216C2.85457 9.28444 3.39361 9.46905 3.95002 9.48023C3.0054 10.2222 1.83851 10.6247 0.637305 10.6228C0.424281 10.6225 0.211466 10.6094 0 10.5837C1.2203 11.3666 2.63983 11.7824 4.08967 11.7816Z" fill="white"/>
    </g>
    <defs>
        <clipPath id="clip0_759_564">
            <rect width="13" height="13" fill="white"/>
        </clipPath>
    </defs>
</svg>