<svg xmlns="http://www.w3.org/2000/svg" width="16" height="16" viewBox="0 0 16 16" fill="none">
    <g clip-path="url(#clip0_714_476)">
        <path d="M14.8156 0H1.18125C0.528125 0 0 0.501783 0 1.12217V14.4453C0 15.0656 0.528125 15.5705 1.18125 15.5705H14.8156C15.4688 15.5705 16 15.0656 16 14.4483V1.12217C16 0.501783 15.4688 0 14.8156 0ZM4.74687 13.2683H2.37188V5.83588H4.74687V13.2683ZM3.55938 4.8232C2.79688 4.8232 2.18125 4.2241 2.18125 3.48511C2.18125 2.74612 2.79688 2.14702 3.55938 2.14702C4.31875 2.14702 4.93437 2.74612 4.93437 3.48511C4.93437 4.22106 4.31875 4.8232 3.55938 4.8232ZM13.6344 13.2683H11.2625V9.65551C11.2625 8.79488 11.2469 7.68488 10.0281 7.68488C8.79375 7.68488 8.60625 8.62458 8.60625 9.59469V13.2683H6.2375V5.83588H8.5125V6.85161H8.54375C8.85938 6.26772 9.63438 5.65038 10.7875 5.65038C13.1906 5.65038 13.6344 7.18918 13.6344 9.19022V13.2683Z" fill="#282938"/>
    </g>
    <defs>
        <clipPath id="clip0_714_476">
            <rect width="16" height="15.5705" fill="white"/>
        </clipPath>
    </defs>
</svg>