<svg xmlns="http://www.w3.org/2000/svg" width="16" height="16" viewBox="0 0 16 16" fill="none">
    <g clip-path="url(#clip0_714_469)">
        <path d="M5.03344 14.1105C11.0697 14.1105 14.3722 9.24255 14.3722 5.02241C14.3722 4.88556 14.3691 4.74567 14.3628 4.60882C15.0052 4.15669 15.5597 3.59667 16 2.95507C15.4017 3.21412 14.7664 3.38331 14.1159 3.45685C14.8009 3.05732 15.3137 2.42968 15.5594 1.69027C14.915 2.06188 14.2104 2.32402 13.4756 2.46545C12.9806 1.95354 12.326 1.61459 11.6131 1.50101C10.9003 1.38744 10.1688 1.50555 9.53183 1.83711C8.89486 2.16866 8.38787 2.69517 8.08923 3.33525C7.7906 3.97533 7.71695 4.69333 7.87969 5.37822C6.575 5.31451 5.29862 4.98468 4.13332 4.41013C2.96802 3.83557 1.9398 3.02912 1.11531 2.04304C0.696266 2.74613 0.568038 3.57811 0.756687 4.3699C0.945337 5.16169 1.43671 5.85387 2.13094 6.30576C1.60975 6.28966 1.09998 6.1531 0.64375 5.90737V5.94691C0.643283 6.68475 0.905399 7.39997 1.38554 7.97101C1.86568 8.54205 2.53422 8.93365 3.2775 9.07925C2.7947 9.2078 2.28799 9.22653 1.79656 9.13399C2.0063 9.76853 2.41438 10.3235 2.96385 10.7215C3.51331 11.1195 4.17675 11.3406 4.86156 11.354C3.69895 12.2427 2.26278 12.7248 0.784375 12.7225C0.522191 12.7221 0.260266 12.7065 0 12.6757C1.5019 13.6133 3.24902 14.1114 5.03344 14.1105Z" fill="#282938"/>
    </g>
    <defs>
        <clipPath id="clip0_714_469">
            <rect width="16" height="15.5705" fill="white"/>
        </clipPath>
    </defs>
</svg>